<svg xmlns="http://www.w3.org/2000/svg" viewBox="0 0 520 640" role="img" aria-labelledby="title desc">
  <title id="title">Syed Ayan Ali leadership portrait panel</title>
  <desc id="desc">Premium non-photographic executive portrait-style illustration for the business manager profile.</desc>
  <defs>
    <linearGradient id="bg" x1="58" y1="591" x2="468" y2="59" gradientUnits="userSpaceOnUse">
      <stop stop-color="#030509"/>
      <stop offset=".5" stop-color="#08111D"/>
      <stop offset="1" stop-color="#00A6FF"/>
    </linearGradient>
    <radialGradient id="glow" cx="48%" cy="32%" r="58%">
      <stop stop-color="#00A6FF" stop-opacity=".5"/>
      <stop offset="1" stop-color="#00A6FF" stop-opacity="0"/>
    </radialGradient>
  </defs>
  <rect width="520" height="640" rx="18" fill="url(#bg)"/>
  <rect x="30" y="30" width="460" height="580" rx="12" fill="none" stroke="#fff" stroke-opacity=".16"/>
  <circle cx="260" cy="177" r="160" fill="url(#glow)" opacity=".88"/>
  <path d="M142 505c25-91 78-137 118-137s93 46 118 137v58H142v-58Z" fill="#0A111D"/>
  <path d="M178 563h164l-33-126-49 55-49-55-33 126Z" fill="#102E5B"/>
  <path d="M196 254c6-73 48-112 64-112s58 39 64 112c5 68-25 116-64 116s-69-48-64-116Z" fill="#E6EEF8"/>
  <path d="M185 237c12-65 48-105 75-105 28 0 69 40 75 105-51-22-98-22-150 0Z" fill="#06101D"/>
  <path d="M198 312c41 21 82 21 124 0-10 37-31 58-62 58s-52-21-62-58Z" fill="#C8D5E2" opacity=".52"/>
  <path d="M198 470h124" stroke="#7CCBFF" stroke-opacity=".75" stroke-width="3" stroke-linecap="round"/>
  <text x="260" y="86" fill="#fff" text-anchor="middle" font-family="Arial, Helvetica, sans-serif" font-size="18" font-weight="800" letter-spacing="4">BUSINESS MANAGER</text>
  <text x="260" y="594" fill="#7CCBFF" text-anchor="middle" font-family="Arial, Helvetica, sans-serif" font-size="15" font-weight="800" letter-spacing="3">OPERATIONS</text>
</svg>
