<svg xmlns="http://www.w3.org/2000/svg" viewBox="0 0 96 96" role="img" aria-label="Caryaire Engineers mark">
  <defs>
    <linearGradient id="g" x1="15" y1="81" x2="82" y2="12" gradientUnits="userSpaceOnUse">
      <stop stop-color="#003B78"/>
      <stop offset=".55" stop-color="#0066CC"/>
      <stop offset="1" stop-color="#80D8FF"/>
    </linearGradient>
  </defs>
  <rect x="8" y="8" width="80" height="80" rx="19" fill="#05070B"/>
  <path d="M67.4 28.2C61.9 23.1 55 20.5 46.8 20.5c-16 0-28 11.7-28 27.5 0 16.1 12 27.5 28.7 27.5 7.7 0 14.8-2.4 20.1-7.2l-8.5-10.1c-3.2 2.8-6.9 4.2-11.2 4.2-8.4 0-14.3-5.8-14.3-14.4 0-8.5 5.8-14.4 14-14.4 4.6 0 8.4 1.6 11.5 4.7l8.3-10.1Z" fill="url(#g)"/>
  <path d="M75 48c0 14.9-12.1 27-27 27" fill="none" stroke="#fff" stroke-opacity=".76" stroke-width="5" stroke-linecap="round"/>
  <path d="M24 48c0-13.3 10.7-24 24-24" fill="none" stroke="#fff" stroke-opacity=".24" stroke-width="4" stroke-linecap="round"/>
</svg>
